<svg id="Capa_1" enable-background="new 0 0 512 512" height="512" viewBox="0 0 512 512" width="512" xmlns="http://www.w3.org/2000/svg"><g><path d="m111.981 471.005h-69.21v-445.214c0-14.244 11.547-25.791 25.792-25.791h17.627c14.244 0 25.791 11.547 25.791 25.791z" fill="#eab14d"/><path d="m469.229 471.005h-357.248v-445.214-8.505c0-9.547 7.739-17.286 17.286-17.286h292.416c26.259 0 47.545 21.287 47.545 47.545v423.46z" fill="#ffe07d"/><path d="m421.683 0h-25.035c26.259 0 47.545 21.287 47.545 47.545v423.46h25.035v-423.46c.001-26.258-21.286-47.545-47.545-47.545z" fill="#ffd064"/><path d="m115.627 438.441c-1.886 2.284-5.39 2.27-7.258-.029l-1.62-1.994c-3.86-4.751-9.655-7.509-15.776-7.509h-21.947c-14.5 0-26.254 11.754-26.254 26.254v30.582c0 14.5 11.754 26.254 26.254 26.254h21.948c6.121 0 11.917-2.759 15.776-7.509l1.62-1.994c1.868-2.299 5.372-2.312 7.257-.029 4.983 6.036 12.402 9.532 20.23 9.532h305.258c15.527 0 28.114-12.587 28.114-28.114v-26.863c0-15.527-12.587-28.114-28.114-28.114h-305.258c-7.828.002-15.246 3.497-20.23 9.533z" fill="#f9f6f9"/><g><path d="m441.115 428.91h-25.035c15.527 0 28.114 12.587 28.114 28.114v26.863c0 15.527-12.587 28.114-28.114 28.114h25.035c15.527 0 28.114-12.587 28.114-28.114v-26.863c0-15.527-12.587-28.114-28.114-28.114z" fill="#dddaec"/></g><g><g><path d="m435.581 465.252h-289.953c-4.268 0-7.726-3.459-7.726-7.726s3.459-7.726 7.726-7.726h289.953c4.268 0 7.726 3.459 7.726 7.726s-3.458 7.726-7.726 7.726z" fill="#dddaec"/></g><g><path d="m435.581 491.11h-289.953c-4.268 0-7.726-3.459-7.726-7.726s3.459-7.726 7.726-7.726h289.953c4.268 0 7.726 3.459 7.726 7.726s-3.458 7.726-7.726 7.726z" fill="#dddaec"/></g></g><path d="m340.144 87.419h-129.984c-2.69 0-4.871-2.181-4.871-4.871v-23.375c0-2.69 2.181-4.871 4.871-4.871h129.984c2.69 0 4.871 2.181 4.871 4.871v23.374c0 2.691-2.181 4.872-4.871 4.872z" fill="#f9f6f9"/><path d="m340.144 54.302h-21.776c2.69 0 4.871 2.181 4.871 4.871v23.374c0 2.69-2.181 4.871-4.871 4.871h21.776c2.69 0 4.871-2.181 4.871-4.871v-23.374c0-2.69-2.181-4.871-4.871-4.871z" fill="#dddaec"/><g><g><path d="m334.589 376.888h-118.874c-4.268 0-7.726-3.459-7.726-7.726s3.459-7.726 7.726-7.726h118.874c4.268 0 7.726 3.459 7.726 7.726s-3.458 7.726-7.726 7.726z" fill="#665e66"/></g></g><path d="m386.255 327.497h-222.206c-5.348 0-9.684-4.335-9.684-9.684v-181.329c0-5.348 4.335-9.684 9.684-9.684h222.206c5.348 0 9.684 4.335 9.684 9.684v181.329c-.001 5.348-4.336 9.684-9.684 9.684z" fill="#f9f6f9"/><path d="m386.255 126.8h-19.152c5.348 0 9.684 4.336 9.684 9.684v181.329c0 5.348-4.336 9.684-9.684 9.684h19.152c5.348 0 9.684-4.335 9.684-9.684v-181.329c0-5.348-4.336-9.684-9.684-9.684z" fill="#dddaec"/><g><g><g><path d="m350.379 284.404c-18.037 0-32.712-14.675-32.712-32.712s14.675-32.712 32.712-32.712c6.554 0 12.88 1.934 18.295 5.592 3.536 2.389 4.466 7.192 2.077 10.727-2.388 3.536-7.192 4.466-10.727 2.077-2.851-1.926-6.186-2.944-9.645-2.944-9.517 0-17.26 7.742-17.26 17.26 0 9.517 7.742 17.26 17.26 17.26 3.451 0 6.336-1.011 8.575-3.005.437-.389.856-.822 1.241-1.283 2.74-3.272 7.614-3.701 10.884-.963 3.272 2.739 3.702 7.613.963 10.884-.865 1.033-1.811 2.009-2.809 2.899-5.084 4.529-11.604 6.92-18.854 6.92z" fill="#eab14d"/></g></g><path d="m228.913 218.275c-3.961 0-7.22 2.981-7.669 6.821-4.349-2.445-9.361-3.847-14.695-3.847-16.591 0-30.091 13.499-30.091 30.091 0 16.593 13.499 30.092 30.091 30.092 5.335 0 10.346-1.402 14.695-3.847.449 3.84 3.708 6.82 7.669 6.82 4.268 0 7.726-3.459 7.726-7.726v-50.676c0-4.269-3.458-7.728-7.726-7.728zm-22.364 47.703c-8.071 0-14.638-6.567-14.638-14.639s6.566-14.638 14.638-14.638c8.071 0 14.638 6.566 14.638 14.638s-6.567 14.639-14.638 14.639z" fill="#dd636e"/><path d="m278.691 218.98c-6.332 0-12.246 1.814-17.26 4.941v-21.758c0-4.268-3.459-7.727-7.726-7.727-4.268 0-7.726 3.459-7.726 7.727v74.515c0 4.268 3.459 7.726 7.726 7.726 3.387 0 6.257-2.182 7.301-5.215 5.104 3.294 11.172 5.215 17.685 5.215 18.037 0 32.712-14.675 32.712-32.712s-14.675-32.712-32.712-32.712zm0 49.971c-9.517 0-17.26-7.742-17.26-17.26 0-9.517 7.742-17.26 17.26-17.26 9.517 0 17.26 7.742 17.26 17.26-.001 9.518-7.743 17.26-17.26 17.26z" fill="#b3e59f"/></g><g><path d="m310.764 170.233h-71.224c-4.268 0-7.726-3.459-7.726-7.726s3.459-7.726 7.726-7.726h71.224c4.268 0 7.726 3.459 7.726 7.726s-3.458 7.726-7.726 7.726z" fill="#665e66"/></g></g></svg>