<svg id="Layer_1" enable-background="new 0 0 128 128" height="512" viewBox="0 0 128 128" width="512" xmlns="http://www.w3.org/2000/svg"><g><path d="m124.419 49.198c-.597-.685-1.377-1.154-2.229-1.412v-9.942c0-2.635-2.144-4.779-4.779-4.779h-2.275v-17.55c0-1.283-1.044-2.327-2.327-2.327h-1.01v-2.959c0-1.283-1.044-2.327-2.327-2.327h-43.091c-1.283 0-2.327 1.044-2.327 2.327v16.847h-2.275c-2.436 0-4.43 1.839-4.721 4.198-2.16-8.902-10.204-15.543-19.797-15.543-11.241 0-20.386 9.108-20.386 20.303 0 6.187 2.801 11.727 7.197 15.454h-5.667c-7.168 0-13 5.832-13 13v25.44c0 1.654 1.346 3 3 3h57.712c1.654 0 3-1.346 3-3v-9.682c1.628 6.93 6.681 12.536 13.275 14.948v1.286c0 1.902 1.333 3.492 3.112 3.905l-1.309 16.882c-.116 1.5.403 2.993 1.425 4.097s2.47 1.737 3.974 1.737 2.953-.633 3.974-1.737 1.541-2.597 1.424-4.096l-1.308-16.882c1.779-.412 3.112-2.002 3.112-3.905v-1.286c7.231-2.645 12.609-9.134 13.647-16.991h7.453c2.374 0 4.409-1.773 4.734-4.124l2.917-21.086c.192-1.371-.22-2.754-1.128-3.796zm-69.648-.001c-.571.656-.92 1.452-1.072 2.29h-3.248c3.171-2.689 5.493-6.326 6.549-10.466v6.766c-.852.256-1.632.726-2.229 1.41z" fill="#e6e7e8"/><g><g><path d="m62.118 87.927h-57.712c-1.105 0-2-.895-2-2v-25.44c0-6.627 5.373-12 12-12h37.712c6.627 0 12 5.373 12 12v25.44c0 1.104-.896 2-2 2z" fill="#6dc9f7"/><g fill="#fa759e"><path d="m33.261 51.124-4.183 5.169 2.236 6.772h3.895l2.236-6.772z"/><path d="m35.209 63.065h-3.895l-1.5 24.862h6.895z"/></g><path d="m52.648 32.033c0 10.661-8.679 19.303-19.386 19.303s-19.386-8.642-19.386-19.303 8.679-19.303 19.386-19.303c10.706 0 19.386 8.643 19.386 19.303z" fill="#fff"/></g><g><path d="m54.375 44.557h62.44c.129 0 .25.029.375.041v-10.754c0-2.087-1.692-3.779-3.779-3.779h-34.308c-1.107 0-2.157-.494-2.862-1.348l-2.704-3.271c-.718-.869-1.786-1.371-2.913-1.371h-12.845c-2.087 0-3.779 1.692-3.779 3.779v16.745c.125-.013.246-.042.375-.042z" fill="#0089ef"/><g fill="#ffd7e5"><path d="m66.341 11.515c0-.733.594-1.327 1.327-1.327h39.132v-3.96c0-.733-.594-1.327-1.327-1.327h-43.092c-.733 0-1.327.594-1.327 1.327v38.329h5.287z"/><path d="m110.136 44.557v-33.042c0-.733-.594-1.327-1.327-1.327h-41.141c-.733 0-1.327.594-1.327 1.327v33.043h43.795z"/></g><path d="m113.898 73.202h-56.606c-1.887 0-3.485-1.392-3.744-3.261l-2.917-21.086c-.314-2.272 1.451-4.297 3.744-4.297h62.44c2.293 0 4.058 2.026 3.744 4.297l-2.917 21.086c-.259 1.869-1.857 3.261-3.744 3.261z" fill="#6dc9f7"/></g><g><path d="m85.595 118.099c-2.573 0-4.601-2.191-4.402-4.756l1.384-17.848h6.036l1.384 17.848c.199 2.565-1.829 4.756-4.402 4.756z" fill="#fa759e"/><path d="m85.595 91.489c-2.166 0-4.248-.354-6.202-.989v1.979c0 1.666 1.35 3.016 3.016 3.016h6.372c1.666 0 3.016-1.35 3.016-3.016v-1.979c-1.954.635-4.036.989-6.202.989z" fill="#fa759e"/><circle cx="85.595" cy="71.436" fill="#ffd7e5" r="20.053"/><circle cx="85.595" cy="71.436" fill="#d4fbff" r="15"/><path d="m85.595 59.436c7.778 0 14.171 5.92 14.924 13.5.049-.494.076-.994.076-1.5 0-8.284-6.716-15-15-15s-15 6.716-15 15c0 .506.027 1.006.076 1.5.753-7.58 7.146-13.5 14.924-13.5z" fill="#fff"/><g fill="#3a2c60"><path d="m2.405 78.113c.552 0 1-.448 1-1v-7.333c0-.552-.448-1-1-1s-1 .448-1 1v7.333c0 .553.448 1 1 1z"/><path d="m71.696 23.771h33.084c.552 0 1-.448 1-1s-.448-1-1-1h-33.084c-.552 0-1 .448-1 1s.448 1 1 1z"/><path d="m71.696 33.521h33.084c.552 0 1-.448 1-1s-.448-1-1-1h-33.084c-.552 0-1 .448-1 1s.448 1 1 1z"/><path d="m120.419 45.197c-.597-.685-1.377-1.154-2.229-1.412v-9.942c0-2.635-2.144-4.779-4.779-4.779h-2.275v-17.55c0-1.283-1.044-2.327-2.327-2.327h-1.01v-2.959c0-1.283-1.044-2.327-2.327-2.327h-43.091c-1.283 0-2.327 1.044-2.327 2.327v16.847h-2.275c-2.436 0-4.43 1.839-4.721 4.198-2.16-8.902-10.204-15.543-19.797-15.543-11.241 0-20.386 9.108-20.386 20.303 0 6.187 2.801 11.727 7.197 15.454h-5.667c-7.168 0-13 5.832-13 13v5.013c0 .552.448 1 1 1s1-.448 1-1v-5.013c0-6.065 4.935-11 11-11h5.479l4.713 11.574c.133.328.429.567.78.612.388.05.732-.124.924-.36l2.402-2.967 1.602 4.851-1.431 23.73h-24.469c-.551 0-1-.449-1-1v-4.48c0-.552-.448-1-1-1s-1 .448-1 1v4.48c0 1.654 1.346 3 3 3h57.712c1.654 0 3-1.346 3-3v-9.682c1.628 6.93 6.681 12.536 13.275 14.948v1.286c0 1.902 1.333 3.492 3.112 3.905l-1.309 16.883c-.116 1.5.403 2.992 1.425 4.096 1.021 1.104 2.47 1.737 3.974 1.737s2.953-.633 3.975-1.737c1.021-1.104 1.54-2.597 1.424-4.096l-1.308-16.882c1.779-.412 3.112-2.002 3.112-3.905v-1.286c7.231-2.645 12.609-9.134 13.647-16.991h7.453c2.374 0 4.409-1.773 4.734-4.124l2.917-21.086c.191-1.37-.221-2.754-1.129-3.796zm-70.72 2.29h-3.248c3.171-2.689 5.493-6.326 6.549-10.466v6.765c-.851.257-1.631.727-2.228 1.411-.572.656-.92 1.452-1.073 2.29zm-14.265 4.731c2.969-.315 5.739-1.281 8.19-2.731h.856l-3.767 9.252zm77.977-21.154c1.533 0 2.779 1.247 2.779 2.779v9.713h-5.054v-12.492zm-4.275-19.549v32.042h-41.795v-32.042c0-.18.146-.327.327-.327h41.142c.179 0 .326.146.326.327zm-47.082-5.287c0-.18.146-.327.327-.327h43.092c.18 0 .327.147.327.327v2.959h-38.133c-1.283 0-2.327 1.044-2.327 2.327v32.042h-3.287v-37.328zm-4.275 18.847h2.275v18.482h-5.054v-15.703c0-1.533 1.246-2.779 2.779-2.779zm-42.904 6.958c0-10.092 8.248-18.303 18.386-18.303s18.386 8.211 18.386 18.303-8.248 18.303-18.386 18.303c-10.137 0-18.386-8.211-18.386-18.303zm10.936 26.706-3.767-9.252h.856c2.451 1.449 5.221 2.416 8.19 2.731zm7.45-6.026 3.063 3.784-1.838 5.568h-2.449l-1.839-5.568zm-2.385 34.214 1.379-22.862h2.012l1.379 22.862zm31.242 0h-24.468l-1.432-23.73 1.602-4.852 2.402 2.968c.191.237.534.416.924.36.35-.05.646-.285.78-.612l4.713-11.574h3.07l2.849 20.591c.326 2.351 2.361 4.124 4.734 4.124h5.826v11.725c0 .551-.449 1-1 1zm25.984 29.076c-.654.707-1.544 1.096-2.506 1.096s-1.853-.389-2.506-1.095c-.654-.707-.973-1.624-.898-2.583l1.312-16.925h4.186l1.31 16.924c.074.959-.245 1.877-.898 2.583zm2.695-23.524c0 1.112-.904 2.016-2.016 2.016h-6.372c-1.112 0-2.016-.904-2.016-2.016v-.667c1.667.426 3.404.677 5.202.677s3.535-.251 5.202-.677zm-5.202-1.99c-10.506 0-19.053-8.547-19.053-19.053s8.547-19.053 19.053-19.053 19.053 8.547 19.053 19.053-8.547 19.053-19.053 19.053zm33.973-41.772-2.917 21.087c-.189 1.367-1.373 2.398-2.753 2.398h-7.289c.009-.256.039-.508.039-.766 0-11.609-9.444-21.053-21.053-21.053s-21.053 9.444-21.053 21.053c0 .259.03.51.039.766h-7.289c-1.38 0-2.564-1.031-2.753-2.398l-2.917-21.086c-.11-.796.129-1.601.658-2.207.528-.606 1.292-.954 2.095-.954h62.44c.804 0 1.568.348 2.096.954.527.606.767 1.41.657 2.206z"/><path d="m85.595 55.436c-8.822 0-16 7.178-16 16s7.178 16 16 16 16-7.178 16-16-7.178-16-16-16zm0 30c-7.72 0-14-6.28-14-14s6.28-14 14-14 14 6.28 14 14-6.28 14-14 14z"/></g></g></g></g></svg>