<?xml version="1.0" encoding="UTF-8" standalone="no"?>
<!DOCTYPE svg PUBLIC "-//W3C//DTD SVG 1.1//EN" "http://www.w3.org/Graphics/SVG/1.1/DTD/svg11.dtd">
<svg version="1.1" xmlns="http://www.w3.org/2000/svg" xmlns:xlink="http://www.w3.org/1999/xlink" preserveAspectRatio="xMidYMid meet" viewBox="0 0 640 640" width="640" height="640"><defs><path d="M376.25 76.25C376.25 64.25 376.25 57.58 376.25 56.25C376.25 45.9 367.86 37.5 357.5 37.5C351.55 37.5 303.98 37.5 298.04 37.5C290.3 15.67 269.45 0 245 0C220.55 0 199.7 15.67 191.96 37.5C185.89 37.5 137.32 37.5 131.25 37.5C120.9 37.5 112.5 45.9 112.5 56.25C112.5 57.58 112.5 64.25 112.5 76.25C78.75 76.25 60 76.25 56.25 76.25C25.23 76.25 0 101.48 0 132.5C0 177.63 0 538.63 0 583.75C0 614.77 25.23 640 56.25 640C94 640 396 640 433.75 640C464.77 640 490 614.77 490 583.75C490 538.63 490 177.63 490 132.5C490 101.48 464.77 76.25 433.75 76.25C426.08 76.25 406.92 76.25 376.25 76.25ZM207.5 75C217.86 75 226.25 66.61 226.25 56.25C226.25 45.91 234.66 37.5 245 37.5C255.34 37.5 263.75 45.91 263.75 56.25C263.75 66.61 272.15 75 282.5 75C286.25 75 305 75 338.75 75C338.75 87 338.75 93.67 338.75 95C338.75 105.34 330.34 113.75 320 113.75C304.88 113.75 183.88 113.75 168.75 113.75C158.41 113.75 150 105.34 150 95C150 93.67 150 87 150 75C184.5 75 203.67 75 207.5 75ZM433.75 602.5C396 602.5 94 602.5 56.25 602.5C45.91 602.5 37.5 594.09 37.5 583.75C37.5 538.63 37.5 177.63 37.5 132.5C37.5 122.16 45.91 113.75 56.25 113.75C62.2 113.75 109.78 113.75 115.73 113.75C123.46 135.57 144.31 151.25 168.75 151.25C183.88 151.25 304.88 151.25 320 151.25C344.44 151.25 365.29 135.57 373.03 113.75C379.1 113.75 427.68 113.75 433.75 113.75C444.09 113.75 452.5 122.16 452.5 132.5C452.5 162.58 452.5 313 452.5 583.75C446.89 596.25 440.64 602.5 433.75 602.5Z" id="bH9gd0ix"></path><path d="M194.35 325.38C190.15 329.51 169.15 350.17 131.36 387.34C116.75 372.73 108.63 364.62 107.01 362.99C99.69 355.67 87.81 355.67 80.49 362.99C73.17 370.32 73.17 382.19 80.49 389.51C84.24 393.26 114.24 423.26 117.99 427.01C121.65 430.67 126.45 432.5 131.25 432.5C136 432.5 140.75 430.71 144.4 427.12C152.02 419.62 213.02 359.62 220.65 352.12C228.03 344.86 228.13 332.98 220.87 325.6C213.61 318.22 201.73 318.12 194.35 325.38Z" id="a6e9PKlA"></path><path d="M194.35 456.63C190.15 460.76 169.15 481.42 131.36 518.59C116.75 503.98 108.63 495.87 107.01 494.24C99.69 486.92 87.81 486.92 80.49 494.24C73.17 501.57 73.17 513.44 80.49 520.76C84.24 524.51 114.24 554.51 117.99 558.26C121.65 561.92 126.45 563.75 131.25 563.75C136 563.75 140.75 561.96 144.4 558.37C152.02 550.87 213.02 490.87 220.65 483.37C228.03 476.11 228.13 464.23 220.87 456.85C213.61 449.47 201.73 449.37 194.35 456.63Z" id="a4lXN62j"></path><path d="M157.77 245C172.31 230.46 180.39 222.37 182.01 220.76C189.33 213.44 189.33 201.57 182.01 194.24C174.69 186.92 162.81 186.92 155.49 194.24C153.88 195.86 145.79 203.94 131.25 218.48C116.7 203.94 108.62 195.86 107.01 194.24C99.69 186.92 87.81 186.92 80.49 194.24C73.17 201.57 73.17 213.44 80.49 220.76C82.11 222.37 90.19 230.46 104.73 245C90.19 259.54 82.11 267.63 80.49 269.24C73.17 276.56 73.17 288.44 80.49 295.76C87.81 303.08 99.69 303.08 107.01 295.76C108.62 294.14 116.71 286.06 131.25 271.52C145.8 286.06 153.88 294.14 155.49 295.76C162.81 303.08 174.69 303.08 182.01 295.76C189.33 288.44 189.33 276.57 182.01 269.24C178.78 266.01 170.7 257.93 157.77 245Z" id="a15P0ZKgNR"></path><path d="M282.5 226.25C272.15 226.25 263.75 234.65 263.75 245C263.75 255.36 272.15 263.75 282.5 263.75C293.88 263.75 384.88 263.75 396.25 263.75C406.61 263.75 415 255.36 415 245C415 234.65 406.61 226.25 396.25 226.25C373.5 226.25 293.88 226.25 282.5 226.25Z" id="b1X0VJVqJM"></path><path d="M282.5 357.5C272.15 357.5 263.75 365.9 263.75 376.25C263.75 386.61 272.15 395 282.5 395C293.88 395 384.88 395 396.25 395C406.61 395 415 386.61 415 376.25C415 365.9 406.61 357.5 396.25 357.5C373.5 357.5 293.88 357.5 282.5 357.5Z" id="cLi81eCYB"></path><path d="M282.5 488.75C272.15 488.75 263.75 497.15 263.75 507.5C263.75 517.86 272.15 526.25 282.5 526.25C293.88 526.25 384.88 526.25 396.25 526.25C406.61 526.25 415 517.86 415 507.5C415 497.15 406.61 488.75 396.25 488.75C373.5 488.75 293.88 488.75 282.5 488.75Z" id="e6aLNThwLG"></path><path d="M527.5 170C527.5 181.93 527.5 457.64 527.5 470C527.5 472.02 527.86 474.11 528.44 475.87C532.19 487.25 562.19 578.25 565.94 589.62C568.48 597.31 575.66 602.5 583.75 602.5C591.84 602.5 599.02 597.31 601.56 589.62C605.31 578.25 635.31 487.25 639.06 475.87C639.69 473.96 640 471.83 640 470C640 457.66 640 181.98 640 170C640 138.98 614.77 113.75 583.75 113.75C552.73 113.75 527.5 138.98 527.5 170ZM568.27 476.89C573.01 474.49 578.28 473.22 583.75 473.22C589.22 473.22 594.5 474.49 599.24 476.89C598.2 480.03 593.04 495.68 583.75 523.86C574.46 495.68 569.3 480.03 568.27 476.89ZM583.75 435.72C577.33 435.72 571.04 436.57 565 438.2C565 426.57 565 368.42 565 263.75L602.5 263.75L602.5 438.2C594.28 436.54 588.03 435.72 583.75 435.72ZM565 226.25C565 192.5 565 173.75 565 170C565 159.66 573.41 151.25 583.75 151.25C594.09 151.25 602.5 159.66 602.5 170C602.5 173.75 602.5 192.5 602.5 226.25L565 226.25Z" id="cIGAC5vwt"></path></defs><g><g><g><use xlink:href="#bH9gd0ix" opacity="1" fill="#fffcfc" fill-opacity="1"></use><g><use xlink:href="#bH9gd0ix" opacity="1" fill-opacity="0" stroke="#000000" stroke-width="1" stroke-opacity="0"></use></g></g><g><use xlink:href="#a6e9PKlA" opacity="1" fill="#fffcfc" fill-opacity="1"></use><g><use xlink:href="#a6e9PKlA" opacity="1" fill-opacity="0" stroke="#000000" stroke-width="1" stroke-opacity="0"></use></g></g><g><use xlink:href="#a4lXN62j" opacity="1" fill="#fffcfc" fill-opacity="1"></use><g><use xlink:href="#a4lXN62j" opacity="1" fill-opacity="0" stroke="#000000" stroke-width="1" stroke-opacity="0"></use></g></g><g><use xlink:href="#a15P0ZKgNR" opacity="1" fill="#fffcfc" fill-opacity="1"></use><g><use xlink:href="#a15P0ZKgNR" opacity="1" fill-opacity="0" stroke="#000000" stroke-width="1" stroke-opacity="0"></use></g></g><g><use xlink:href="#b1X0VJVqJM" opacity="1" fill="#fffcfc" fill-opacity="1"></use><g><use xlink:href="#b1X0VJVqJM" opacity="1" fill-opacity="0" stroke="#000000" stroke-width="1" stroke-opacity="0"></use></g></g><g><use xlink:href="#cLi81eCYB" opacity="1" fill="#fffcfc" fill-opacity="1"></use><g><use xlink:href="#cLi81eCYB" opacity="1" fill-opacity="0" stroke="#000000" stroke-width="1" stroke-opacity="0"></use></g></g><g><use xlink:href="#e6aLNThwLG" opacity="1" fill="#fffcfc" fill-opacity="1"></use><g><use xlink:href="#e6aLNThwLG" opacity="1" fill-opacity="0" stroke="#000000" stroke-width="1" stroke-opacity="0"></use></g></g><g><use xlink:href="#cIGAC5vwt" opacity="1" fill="#fffcfc" fill-opacity="1"></use><g><use xlink:href="#cIGAC5vwt" opacity="1" fill-opacity="0" stroke="#000000" stroke-width="1" stroke-opacity="0"></use></g></g></g></g></svg>