<?xml version="1.0" encoding="UTF-8" standalone="no"?>
<!DOCTYPE svg PUBLIC "-//W3C//DTD SVG 1.1//EN" "http://www.w3.org/Graphics/SVG/1.1/DTD/svg11.dtd">
<svg version="1.1" xmlns="http://www.w3.org/2000/svg" xmlns:xlink="http://www.w3.org/1999/xlink" preserveAspectRatio="xMidYMid meet" viewBox="0 0 1000 750" width="1000" height="750"><defs><path d="M786.8 331.77C730.42 485.28 699.1 570.56 692.83 587.62C684.04 611.68 636.35 686.98 603.14 702.34C602.34 704.54 595.89 722.13 595.08 724.32C593.03 729.89 587.76 733.38 582.16 733.38C580.57 733.38 578.99 733.09 577.41 732.53C570.29 729.89 566.59 722.01 569.23 714.83C569.99 712.75 576.09 696.12 576.85 694.05C560 661.31 572.57 566.22 579.96 546.12C586.22 529.06 617.5 443.77 673.81 290.26L786.8 331.77ZM759.49 60.09C754.95 72.45 732.26 134.25 691.43 245.51L804.39 286.95C845.17 175.72 867.83 113.92 872.36 101.56C880.92 78.35 868.46 30.95 837.34 19.55C806.27 8.18 769.89 31.68 759.49 60.09ZM642.48 282.41C653.68 282.41 664.2 275.55 668.33 264.41C675.51 245.04 732.96 90.09 740.14 70.73C745.45 56.45 738.15 40.6 723.87 35.32C709.48 30.1 693.74 37.31 688.44 51.59C681.26 70.96 623.81 225.9 616.63 245.27C611.32 259.55 618.62 275.4 632.89 280.68C636.06 281.85 639.31 282.41 642.48 282.41ZM485.7 621.47C473.39 615.99 461.4 615.73 452.63 615.52C451.73 615.52 450.67 615.49 449.62 615.46C444.13 600.46 433.03 591.02 416.35 587.33C394.28 582.67 376.66 593.07 364.44 601.1C365.52 594.95 367.31 587.62 368.63 582.34C372.85 565.34 377.19 547.76 373.96 531.28C371.41 518.27 360.42 508.6 347.17 507.66C313.03 505.75 285.12 524.13 260.53 540.75C234.71 558.19 218.15 568.6 201.68 562.71C181.57 555.55 179.55 501.12 189.22 452.64C197.87 408.97 213.96 327.66 255.2 290.73C269.09 278.3 289.2 264.85 305.73 271.39C325.16 279.01 341.22 311.01 344.8 349.15C346.3 365.24 360.33 377.05 376.72 375.59C392.84 374.09 404.68 359.79 403.16 343.67C397.35 281.53 368.22 232.93 327.16 216.78C302.56 207.23 263.46 204.65 216.07 247.06C164.51 293.22 145.46 371.51 131.65 441.24C124.74 476.06 107.88 591.61 181.98 617.96C227.12 634.05 263.79 609.22 293.24 589.35C298.64 585.71 303.94 582.14 309.1 578.94C304.21 600.19 301.16 622.94 313.99 642.11C333.13 670.89 360.19 674.03 394.36 651.52C395.68 650.67 397.21 649.67 398.64 648.67C401.81 655.3 407.41 662.6 417.58 667.58C429.89 673.62 442.2 673.91 451.17 674.14C455.01 674.23 460.25 674.35 461.84 675.05C467.35 677.49 470.6 680.48 476.93 686.45C481.68 690.94 486.69 695.6 493.05 700.41C498.33 704.36 504.48 706.24 510.58 706.24C519.49 706.24 528.31 702.17 534.06 694.52C543.76 681.56 541.12 663.18 528.17 653.48C523.92 650.2 520.55 646.94 517.29 643.87C509.88 636.86 500.64 628.13 485.7 621.47Z" id="b2tTkeAAzX"></path></defs><g><g><g><use xlink:href="#b2tTkeAAzX" opacity="1" fill="#ffffff" fill-opacity="1"></use><g><use xlink:href="#b2tTkeAAzX" opacity="1" fill-opacity="0" stroke="#000000" stroke-width="1" stroke-opacity="0"></use></g></g></g></g></svg>